<svg width="108" height="15" viewBox="0 0 108 15" fill="none" xmlns="http://www.w3.org/2000/svg">
<g clip-path="url(#clip0_927_472)">
<path d="M58.55 5.17C58.28 5.24 57.99 5.22 57.74 5.1C57.49 4.98 57.27 4.78 57.15 4.53C56.92 4.02 56.98 3.4 57.29 2.93C57.44 2.69 57.65 2.49 57.89 2.35C58.13 2.21 58.41 2.14 58.69 2.11C59.24 2.04 59.82 2.18 60.29 2.48C60.77 2.78 61.13 3.25 61.31 3.78C61.48 4.31 61.53 4.88 61.43 5.43C61.34 5.98 61.12 6.5 60.79 6.95C60.46 7.4 60.02 7.77 59.52 8.02C59.4 8.08 59.26 8.13 59.14 8.19C59.01 8.23 58.87 8.28 58.74 8.31L58.33 8.39C58.19 8.41 58.06 8.42 57.92 8.43C57.37 8.47 56.81 8.41 56.28 8.28C55.21 7.99 54.25 7.35 53.57 6.47C53.24 6.03 52.98 5.53 52.8 5.01L52.68 4.62C52.64 4.48 52.61 4.34 52.59 4.2C52.55 3.92 52.53 3.65 52.54 3.37C52.56 2.26 52.93 1.18 53.52 0.26L53.68 0L53.86 0.23C54.04 0.46 54.18 0.69 54.32 0.93C54.45 1.17 54.58 1.42 54.68 1.68C54.88 2.19 55.02 2.74 55.05 3.3C55.08 3.86 54.99 4.43 54.8 4.95C54.61 5.47 54.36 5.97 54.02 6.41C53.35 7.29 52.41 7.97 51.34 8.27C50.27 8.57 49.11 8.52 48.09 8.05C47.59 7.8 47.15 7.43 46.81 6.99C46.48 6.54 46.25 6.02 46.16 5.47C46.06 4.92 46.11 4.36 46.27 3.82C46.45 3.29 46.81 2.81 47.28 2.51C47.75 2.21 48.32 2.06 48.88 2.13C49.15 2.16 49.43 2.23 49.68 2.37C49.93 2.51 50.13 2.71 50.29 2.94C50.6 3.41 50.66 4.03 50.43 4.54C50.31 4.79 50.09 5 49.84 5.12C49.59 5.24 49.29 5.26 49.03 5.19C49.01 5.19 48.99 5.16 49 5.14C49 5.12 49.03 5.11 49.05 5.11C49.3 5.17 49.57 5.14 49.8 5.02C50.03 4.91 50.21 4.71 50.31 4.48C50.51 4.01 50.43 3.44 50.15 3.03C50.01 2.82 49.82 2.65 49.6 2.53C49.38 2.41 49.13 2.35 48.87 2.33C48.36 2.28 47.85 2.43 47.43 2.71C47.01 2.99 46.69 3.41 46.54 3.89C46.4 4.37 46.36 4.9 46.46 5.4C46.56 5.9 46.77 6.38 47.08 6.78C47.39 7.18 47.8 7.51 48.25 7.73C48.37 7.78 48.48 7.83 48.6 7.87C48.72 7.9 48.84 7.95 48.97 7.97L49.35 8.04L49.73 8.07C50.24 8.09 50.76 8.04 51.25 7.9C52.24 7.62 53.11 6.98 53.72 6.17C54.03 5.76 54.26 5.3 54.43 4.81C54.61 4.33 54.68 3.83 54.65 3.32C54.59 2.31 54.15 1.31 53.55 0.51L53.89 0.49C53.34 1.36 52.99 2.36 52.97 3.39C52.97 3.65 52.97 3.9 53.01 4.15C53.03 4.27 53.05 4.4 53.08 4.52L53.19 4.89C53.35 5.38 53.59 5.83 53.9 6.24C54.52 7.05 55.41 7.65 56.39 7.92C56.88 8.05 57.4 8.1 57.91 8.07C58.04 8.06 58.17 8.05 58.29 8.03L58.67 7.96C58.8 7.94 58.91 7.89 59.04 7.86C59.16 7.81 59.28 7.77 59.39 7.71C59.84 7.49 60.24 7.16 60.55 6.76C60.85 6.35 61.06 5.88 61.16 5.38C61.26 4.88 61.22 4.35 61.07 3.87C60.92 3.39 60.6 2.97 60.18 2.69C59.76 2.41 59.25 2.27 58.74 2.32C58.49 2.34 58.24 2.4 58.02 2.52C57.8 2.64 57.61 2.81 57.47 3.02C57.19 3.43 57.11 4 57.31 4.47C57.41 4.7 57.6 4.89 57.82 5C58.05 5.11 58.31 5.14 58.57 5.09C58.59 5.09 58.61 5.09 58.62 5.12C58.62 5.14 58.62 5.16 58.59 5.17H58.55Z" fill="url(#paint0_linear_927_472)"/>
<path d="M49 9.57001C49.27 9.50001 49.56 9.52001 49.81 9.64001C50.06 9.76001 50.28 9.96001 50.4 10.21C50.63 10.72 50.57 11.34 50.26 11.81C50.11 12.05 49.9 12.25 49.66 12.39C49.42 12.53 49.14 12.6 48.86 12.63C48.31 12.7 47.73 12.56 47.26 12.26C46.78 11.96 46.42 11.49 46.24 10.96C46.07 10.43 46.02 9.86001 46.12 9.31001C46.21 8.76001 46.43 8.24001 46.76 7.79001C47.09 7.34001 47.53 6.97001 48.03 6.72001C48.15 6.66001 48.29 6.61001 48.41 6.55001C48.54 6.51001 48.68 6.46001 48.81 6.43001L49.22 6.35001C49.36 6.33001 49.49 6.32001 49.63 6.31001C50.18 6.27001 50.74 6.33001 51.27 6.46001C52.34 6.75001 53.3 7.39001 53.98 8.27001C54.31 8.71001 54.57 9.21001 54.75 9.73001L54.87 10.12C54.91 10.26 54.94 10.4 54.96 10.54C55 10.82 55.02 11.09 55.01 11.37C54.99 12.48 54.62 13.56 54.03 14.48L53.87 14.73L53.69 14.5C53.51 14.27 53.37 14.04 53.23 13.8C53.1 13.56 52.97 13.31 52.87 13.05C52.67 12.54 52.53 11.99 52.5 11.43C52.47 10.87 52.56 10.3 52.75 9.78001C52.94 9.26001 53.19 8.76001 53.53 8.32001C54.2 7.44001 55.14 6.76001 56.21 6.46001C57.28 6.16001 58.44 6.21001 59.46 6.68001C59.96 6.93001 60.4 7.30001 60.74 7.74001C61.07 8.19001 61.3 8.71001 61.39 9.26001C61.49 9.81001 61.44 10.38 61.28 10.91C61.1 11.44 60.74 11.92 60.27 12.22C59.8 12.52 59.23 12.67 58.67 12.6C58.4 12.57 58.12 12.5 57.87 12.36C57.62 12.22 57.42 12.02 57.26 11.79C56.95 11.32 56.89 10.7 57.12 10.19C57.24 9.94001 57.46 9.73001 57.71 9.61001C57.96 9.49001 58.26 9.47001 58.52 9.54001C58.54 9.54001 58.56 9.57001 58.55 9.59001C58.55 9.61001 58.52 9.62001 58.5 9.62001C58.25 9.56001 57.98 9.59001 57.75 9.71001C57.52 9.82001 57.34 10.02 57.24 10.25C57.04 10.72 57.12 11.29 57.4 11.7C57.68 12.13 58.17 12.37 58.68 12.4C59.19 12.45 59.7 12.3 60.12 12.02C60.54 11.74 60.86 11.32 61.01 10.84C61.15 10.36 61.19 9.83001 61.09 9.33001C60.99 8.83001 60.78 8.35001 60.47 7.95001C60.16 7.55001 59.75 7.22001 59.3 7.00001C59.18 6.95001 59.07 6.90001 58.95 6.86001C58.83 6.83001 58.71 6.78001 58.58 6.76001L58.2 6.69001L57.82 6.66001C57.31 6.64001 56.79 6.69001 56.3 6.83001C55.31 7.11001 54.44 7.75001 53.83 8.56001C53.52 8.97001 53.29 9.43001 53.12 9.92001C52.94 10.4 52.87 10.9 52.9 11.41C52.96 12.42 53.4 13.42 54 14.22L53.66 14.24C54.21 13.37 54.56 12.37 54.58 11.34C54.58 11.08 54.58 10.83 54.54 10.58C54.52 10.46 54.5 10.33 54.47 10.21L54.36 9.84001C54.2 9.35001 53.96 8.90001 53.65 8.49001C53.03 7.68001 52.14 7.08001 51.16 6.81001C50.67 6.68001 50.15 6.63001 49.64 6.66001C49.51 6.67001 49.38 6.68001 49.26 6.70001L48.88 6.77001C48.75 6.79001 48.64 6.84001 48.51 6.87001C48.39 6.92001 48.27 6.96001 48.16 7.02001C47.71 7.24001 47.31 7.57001 47 7.97001C46.7 8.38001 46.49 8.85001 46.39 9.35001C46.29 9.85001 46.33 10.38 46.48 10.86C46.63 11.34 46.95 11.76 47.38 12.04C47.8 12.32 48.31 12.46 48.82 12.41C49.07 12.39 49.32 12.33 49.54 12.21C49.76 12.09 49.95 11.92 50.09 11.71C50.37 11.3 50.45 10.73 50.25 10.26C50.15 10.03 49.96 9.84001 49.73 9.73001C49.5 9.62001 49.24 9.59001 48.98 9.64001C48.96 9.64001 48.94 9.64001 48.93 9.61001C48.93 9.59001 48.93 9.57001 48.96 9.56001L49 9.57001Z" fill="url(#paint1_linear_927_472)"/>
<path d="M60.28 7.04999L106.49 7.29999C106.49 7.29999 106.56 7.32999 106.56 7.36999C106.56 7.40999 106.53 7.43999 106.49 7.43999L60.28 7.68999C60.1 7.68999 59.96 7.54999 59.96 7.36999C59.96 7.18999 60.1 7.04999 60.28 7.04999Z" fill="#45A6FF"/>
<path d="M47.32 7.69L0.989983 7.45C0.989983 7.45 0.919983 7.42 0.919983 7.38C0.919983 7.34 0.949983 7.31 0.989983 7.31L47.32 7.06C47.5 7.06 47.64 7.2 47.64 7.38C47.64 7.56 47.5 7.7 47.32 7.7V7.69Z" fill="#FF7045"/>
<path d="M0.99 8.36C1.53676 8.36 1.98 7.91677 1.98 7.37C1.98 6.82324 1.53676 6.38 0.99 6.38C0.443238 6.38 0 6.82324 0 7.37C0 7.91677 0.443238 8.36 0.99 8.36Z" fill="#FF7045"/>
<path d="M106.49 8.36C107.037 8.36 107.48 7.91677 107.48 7.37C107.48 6.82324 107.037 6.38 106.49 6.38C105.943 6.38 105.5 6.82324 105.5 7.37C105.5 7.91677 105.943 8.36 106.49 8.36Z" fill="#45A6FF"/>
<path d="M49.22 5.22C49.5403 5.22 49.8 4.96032 49.8 4.64C49.8 4.31967 49.5403 4.06 49.22 4.06C48.8997 4.06 48.64 4.31967 48.64 4.64C48.64 4.96032 48.8997 5.22 49.22 5.22Z" fill="#C38282"/>
<path d="M58.98 4.61003C58.98 4.93003 58.72 5.19003 58.4 5.19003C58.08 5.19003 57.82 4.93003 57.82 4.61003C57.82 4.29003 58.08 4.03003 58.4 4.03003C58.72 4.03003 58.98 4.29003 58.98 4.61003Z" fill="#54A2F1"/>
<path d="M58.98 10.12C58.98 10.44 58.72 10.7 58.4 10.7C58.08 10.7 57.82 10.44 57.82 10.12C57.82 9.79998 58.08 9.53998 58.4 9.53998C58.72 9.53998 58.98 9.79998 58.98 10.12Z" fill="#54A2F1"/>
<path d="M49.8 10.12C49.8 10.44 49.54 10.7 49.22 10.7C48.9 10.7 48.64 10.44 48.64 10.12C48.64 9.79998 48.9 9.53998 49.22 9.53998C49.54 9.53998 49.8 9.79998 49.8 10.12Z" fill="#C38282"/>
</g>
<defs>
<linearGradient id="paint0_linear_927_472" x1="47.5" y1="7.5" x2="58.5" y2="5" gradientUnits="userSpaceOnUse">
<stop stop-color="#FF7045"/>
<stop offset="1" stop-color="#45A6FF"/>
</linearGradient>
<linearGradient id="paint1_linear_927_472" x1="46.5" y1="7.5" x2="58.5" y2="10" gradientUnits="userSpaceOnUse">
<stop stop-color="#FF7045"/>
<stop offset="1" stop-color="#45A6FF"/>
</linearGradient>
<clipPath id="clip0_927_472">
<rect width="107.48" height="14.74" fill="white"/>
</clipPath>
</defs>
</svg>
