<?xml version="1.0" standalone="no"?>
<!DOCTYPE svg PUBLIC "-//W3C//DTD SVG 20010904//EN"
 "http://www.w3.org/TR/2001/REC-SVG-20010904/DTD/svg10.dtd">
<svg version="1.0" xmlns="http://www.w3.org/2000/svg"
 width="759.000000pt" height="329.000000pt" viewBox="0 0 759.000000 329.000000"
 preserveAspectRatio="xMidYMid meet">

<g transform="translate(0.000000,329.000000) scale(0.100000,-0.100000)"
fill="#fd1b53" stroke="none">
<path d="M3661 2622 c-30 -53 -66 -117 -82 -142 -15 -25 -41 -70 -58 -100 -17
-30 -50 -88 -74 -129 -23 -40 -51 -89 -63 -110 -11 -20 -56 -97 -99 -171 -43
-74 -92 -160 -108 -190 -17 -30 -52 -90 -79 -132 -26 -43 -48 -81 -48 -84 0
-3 -24 -45 -52 -93 -29 -47 -60 -99 -68 -116 -18 -33 -156 -273 -192 -332 -13
-21 -32 -55 -42 -75 -11 -21 -24 -38 -29 -38 -6 0 -8 -3 -4 -6 3 -3 -9 -29
-27 -57 -18 -29 -36 -59 -39 -67 -4 -8 -18 -33 -30 -55 -13 -22 -38 -67 -57
-100 -18 -33 -42 -73 -52 -90 -10 -16 -18 -33 -18 -36 0 -4 936 -5 962 0 8 1
168 268 168 280 0 5 7 14 15 21 8 7 15 15 15 19 0 3 -133 5 -295 3 -188 -2
-295 1 -295 7 0 6 31 63 69 128 37 65 103 179 146 253 77 133 117 203 340 590
62 107 135 233 163 280 117 200 182 313 182 317 0 2 -18 32 -40 67 -39 61 -92
155 -127 224 -9 17 -19 32 -22 32 -3 0 -30 -44 -60 -98z"/>
<path d="M3984 2146 c-16 -31 -32 -56 -36 -56 -5 0 -8 -5 -8 -11 0 -6 -20 -45
-45 -86 -25 -40 -45 -76 -45 -79 0 -3 -25 -46 -55 -95 -30 -49 -55 -92 -55
-95 0 -3 -24 -45 -52 -92 -29 -48 -57 -93 -61 -102 -4 -8 -13 -24 -20 -35 -7
-11 -32 -56 -56 -100 -25 -44 -49 -83 -55 -87 -6 -4 -8 -8 -4 -8 4 0 -7 -24
-25 -52 -19 -29 -37 -60 -41 -68 -4 -8 -12 -24 -19 -35 -47 -78 -67 -114 -67
-119 0 -3 222 -6 493 -6 l492 0 53 -91 c28 -50 52 -94 52 -100 0 -5 -127 -10
-302 -11 l-303 -3 -92 -155 -93 -155 340 -3 c187 -1 493 -1 679 0 l340 3 -43
75 c-23 41 -78 136 -121 210 -44 74 -86 149 -95 165 -9 17 -41 73 -71 125 -31
52 -78 132 -104 178 l-47 82 -191 1 c-106 0 -243 0 -304 -1 -85 -1 -113 2
-113 11 0 7 27 58 59 113 214 366 238 411 227 437 -6 13 -13 26 -16 29 -11 10
-100 170 -100 180 0 5 -4 10 -9 10 -5 0 -12 8 -15 18 -4 9 -14 28 -24 40 l-19
24 -29 -56z"/>
</g>
</svg>
